<svg width="32" height="32" viewBox="0 0 32 32" fill="none" xmlns="http://www.w3.org/2000/svg" xmlns:xlink="http://www.w3.org/1999/xlink">
<path d="M12.999,9.859C13.239,9.859 13.479,9.768 13.662,9.585L14.162,9.085C14.528,8.719 14.528,8.125 14.162,7.759C13.796,7.393 13.202,7.393 12.836,7.759L12.336,8.259C11.744,8.851 12.171,9.859 12.999,9.859Z" fill="#858585"/>
<path d="M16.999,10.359C17.239,10.359 17.479,10.268 17.662,10.085L18.162,9.585C18.528,9.219 18.528,8.625 18.162,8.259C17.796,7.893 17.202,7.893 16.836,8.259L16.336,8.759C15.744,9.351 16.171,10.359 16.999,10.359Z" fill="#858585"/>
<path d="M12.999,13.859C13.239,13.859 13.479,13.768 13.662,13.585L14.162,13.085C14.528,12.719 14.528,12.125 14.162,11.759C13.796,11.393 13.202,11.393 12.836,11.759L12.336,12.259C11.744,12.851 12.171,13.859 12.999,13.859Z" fill="#858585"/>
<path d="M0.938,17.861L31.062,17.861C31.58,17.861 32,17.441 32,16.924C32,16.406 31.58,15.986 31.062,15.986L29.938,15.986L29.938,4.264C29.938,1.909 28.032,0 25.674,0C24.689,0 23.728,0.344 22.969,0.967L22.38,1.45C21.063,0.675 19.335,0.852 18.205,1.982L16.791,3.396C16.425,3.763 16.425,4.356 16.791,4.722L20.326,8.258C20.692,8.624 21.286,8.624 21.652,8.258C23.153,6.757 23.06,6.844 23.066,6.844C24.156,5.754 24.36,4.109 23.678,2.811L24.158,2.417C24.581,2.07 25.116,1.877 25.664,1.875C26.945,1.864 28.062,2.905 28.062,4.264L28.062,15.986C27.102,15.986 1.889,15.986 0.938,15.986C0.42,15.986 0,16.406 0,16.924C0,17.441 0.42,17.861 0.938,17.861Z" fill="#858585"/>
<path d="M2.559,19.734L2.958,21.931C3.552,25.201 5.979,27.74 9.063,28.57L9.063,29.922C9.063,30.44 9.482,30.859 10,30.859C10.518,30.859 10.938,30.44 10.938,29.922L10.938,28.853C11.23,28.864 20.804,28.863 21.063,28.853L21.063,29.922C21.063,30.44 21.482,30.859 22,30.859C22.518,30.859 22.938,30.44 22.938,29.922L22.938,28.57C26.022,27.74 28.448,25.201 29.042,21.931L29.442,19.734L2.559,19.734L2.559,19.734Z" fill="#858585"/>
</svg>
