<svg width="48" height="48" viewBox="0 0 48 48" fill="none" xmlns="http://www.w3.org/2000/svg" xmlns:xlink="http://www.w3.org/1999/xlink">
<path d="M32.941,20.044C32.941,17.379 31.9,14.824 30.046,12.94C28.193,11.056 25.68,9.997 23.059,9.997C20.438,9.997 17.924,11.056 16.071,12.94C14.217,14.824 13.176,17.379 13.176,20.044L13.176,33.439L32.941,33.439L32.941,20.044ZM36.235,34.556L36.894,35.448C36.986,35.573 37.042,35.721 37.055,35.876C37.069,36.03 37.04,36.186 36.972,36.325C36.903,36.464 36.798,36.581 36.668,36.663C36.538,36.745 36.388,36.788 36.235,36.788L9.882,36.788C9.729,36.788 9.579,36.745 9.449,36.663C9.319,36.581 9.214,36.464 9.146,36.325C9.077,36.186 9.048,36.03 9.062,35.876C9.076,35.721 9.132,35.573 9.223,35.448L9.882,34.556L9.882,20.044C9.882,16.491 11.27,13.084 13.741,10.572C16.212,8.06 19.564,6.648 23.059,6.648C26.553,6.648 29.905,8.06 32.376,10.572C34.847,13.084 36.235,16.491 36.235,20.044L36.235,34.556ZM18.941,38.462L27.176,38.462C27.176,39.573 26.742,40.637 25.97,41.422C25.198,42.207 24.151,42.648 23.059,42.648C21.967,42.648 20.919,42.207 20.147,41.422C19.375,40.637 18.941,39.573 18.941,38.462L18.941,38.462Z" fill="#FFFFFF"/>
<circle cx="32" cy="10" r="6" fill="#FA0E0E"/>
</svg>
